HIERARCHY
ROOT Hips
{
    OFFSET 0.000000 0.000000 0.000000
    CHANNELS 6 Xposition Yposition Zposition Zrotation Xrotation Yrotation
    JOINT Spine
    {
        OFFSET -0.000000 8.505030 0.000000
        CHANNELS 3 Zrotation Xrotation Yrotation
        JOINT Spine1
        {
            OFFSET -0.000000 25.070629 0.000000
            CHANNELS 3 Zrotation Xrotation Yrotation
            JOINT Neck
            {
                OFFSET -0.000000 24.967667 2.269788
                CHANNELS 3 Zrotation Xrotation Yrotation
                JOINT Head
                {
                    OFFSET -0.000000 14.520781 -2.074397
                    CHANNELS 3 Zrotation Xrotation Yrotation
                    End Site
                    {
                        OFFSET -0.000000 25.929966 0.000000
                    }
                }
            }
            JOINT LeftShoulder
            {
                OFFSET 4.117346 22.983784 -0.389865
                CHANNELS 3 Zrotation Xrotation Yrotation
                JOINT LeftArm
                {
                    OFFSET 11.957758 0.000000 0.000000
                    CHANNELS 3 Zrotation Xrotation Yrotation
                    JOINT LeftForeArm
                    {
                        OFFSET 31.907600 0.000000 0.000000
                        CHANNELS 3 Zrotation Xrotation Yrotation
                        JOINT LeftHand
                        {
                            OFFSET 28.601147 0.000000 0.000000
                            CHANNELS 3 Zrotation Xrotation Yrotation
                            End Site
                            {
                                OFFSET 15.557981 0.000000 0.000000
                            }
                        }
                    }
                }
            }
            JOINT RightShoulder
            {
                OFFSET -4.061940 22.983784 -0.389865
                CHANNELS 3 Zrotation Xrotation Yrotation
                JOINT RightArm
                {
                    OFFSET -11.957758 0.000000 0.000000
                    CHANNELS 3 Zrotation Xrotation Yrotation
                    JOINT RightForeArm
                    {
                        OFFSET -31.907600 0.000000 0.000000
                        CHANNELS 3 Zrotation Xrotation Yrotation
                        JOINT RightHand
                        {
                            OFFSET -28.601147 0.000000 0.000000
                            CHANNELS 3 Zrotation Xrotation Yrotation
                            End Site
                            {
                                OFFSET -15.557981 0.000000 0.000000
                            }
                        }
                    }
                }
            }
        }
    }
    JOINT LeftUpLeg
    {
        OFFSET 10.371986 0.000000 0.000000
        CHANNELS 3 Zrotation Xrotation Yrotation
        JOINT LeftLeg
        {
            OFFSET -0.000000 -42.486427 0.000000
            CHANNELS 3 Zrotation Xrotation Yrotation
            JOINT LeftFoot
            {
                OFFSET -0.000000 -48.322342 0.000000
                CHANNELS 3 Zrotation Xrotation Yrotation
                JOINT LeftToeBase
                {
                    OFFSET -0.000000 -6.741791 15.557981
                    CHANNELS 3 Zrotation Xrotation Yrotation
                    End Site
                    {
                        OFFSET -0.000000 0.000000 4.148795
                    }
                }
            }
        }
    }
    JOINT RightUpLeg
    {
        OFFSET -10.371986 0.000000 0.000000
        CHANNELS 3 Zrotation Xrotation Yrotation
        JOINT RightLeg
        {
            OFFSET -0.000000 -42.486427 0.000000
            CHANNELS 3 Zrotation Xrotation Yrotation
            JOINT RightFoot
            {
                OFFSET -0.000000 -48.322342 0.000000
                CHANNELS 3 Zrotation Xrotation Yrotation
                JOINT RightToeBase
                {
                    OFFSET -0.000000 -6.741791 15.557981
                    CHANNELS 3 Zrotation Xrotation Yrotation
                    End Site
                    {
                        OFFSET -0.000000 0.000000 4.148795
                    }
                }
            }
        }
    }
}
MOTION
Frames:    4
Frame Time:    0.008333
-60.371220    92.678696    84.662865    -5.839586    0.866699    96.189629    -0.400080    -5.980319    -0.767876    4.684628    0.163989    -0.753670    -8.364061    28.044399    -4.282484    5.582800    -1.706475    -4.546864    0.513238    3.704900    -5.037780    -69.833809    39.999435    -1.639951    -3.725472    -13.092134    -19.255091    -23.879654    -10.737206    -14.294145    -16.866375    7.264664    -19.138268    69.791618    53.771275    5.456287    0.052790    -9.645654    18.279654    17.811823    -9.368814    1.845869    14.027868    -14.203485    11.159757    -2.246878    31.238506    -5.297991    -11.361888    -20.151205    6.108989    0.000000    0.000000    0.000000    5.475510    -18.688944    4.242181    6.523819    40.365513    -5.938629    -1.942294    -23.929251    -10.818737    0.000000    0.000000    0.000000    
-60.530460    91.836342    84.022568    -6.007665    0.621112    96.220856    0.079384    -6.421198    -1.031840    4.723351    0.879808    -1.072497    -8.723074    27.493614    -3.983006    5.480047    -1.401452    -4.258144    0.624489    3.562185    -4.964130    -70.094284    40.114666    -2.191968    -3.677195    -13.625404    -18.142410    -24.105562    -11.101257    -14.767735    -16.982195    7.118667    -18.390095    69.252838    53.685169    7.150097    0.564397    -9.704725    16.083733    16.623611    -9.388761    2.738894    14.044816    -14.953951    11.905888    -2.097130    32.571293    -5.733450    -8.698676    -22.946507    6.505337    0.000000    0.000000    0.000000    5.365005    -19.287125    3.686164    6.548515    41.371719    -5.467356    -3.938452    -26.012375    -12.051869    0.000000    0.000000    0.000000    
-60.564941    91.199562    83.436066    -6.005383    0.522268    96.219055    0.160585    -6.582589    -1.300027    5.121591    1.290517    -1.366907    -9.206143    27.429955    -3.698995    5.401657    -1.723389    -4.006981    0.335169    3.496145    -4.559195    -70.128540    40.879715    -2.626837    -3.554981    -14.167544    -17.410261    -23.686277    -11.726298    -14.462234    -16.954823    6.959528    -18.201536    68.185204    53.983841    9.084892    1.114853    -9.551502    13.922575    15.926752    -9.200645    3.514515    13.783174    -15.230858    12.631122    -1.554622    33.502003    -6.307684    -7.059924    -25.187193    6.523098    0.000000    0.000000    0.000000    5.252712    -19.548452    2.962846    6.152911    42.150204    -4.955904    -4.974732    -27.590445    -12.769543    0.000000    0.000000    0.000000    
-60.594730    90.696724    82.841797    -6.097096    0.633043    96.184219    -0.400295    -6.748855    -1.321334    6.068524    1.573595    -1.381097    -9.200730    27.630001    -3.692271    5.080770    -2.271320    -4.044780    0.140622    3.321894    -4.822599    -70.753357    41.626289    -2.799149    -3.100648    -14.554372    -16.689209    -23.125401    -12.161536    -14.169401    -16.925182    6.804654    -18.126192    67.637177    54.005131    9.972693    1.554670    -9.385298    12.235330    15.520923    -8.975517    4.267294    13.116800    -15.823673    12.953858    -0.633666    34.679199    -6.272566    -6.052965    -26.644861    6.038486    0.000000    0.000000    0.000000    4.949317    -19.965662    2.414294    5.708341    43.056530    -4.482853    -5.758740    -28.941177    -13.444298    0.000000    0.000000    0.000000    
